<svg width="211" height="130" viewBox="0 0 211 130" fill="none" xmlns="http://www.w3.org/2000/svg">
<path d="M91.5072 64.7167C91.5072 50.2267 79.7607 38.4802 65.2707 38.4802C50.7807 38.4802 39.0342 50.2267 39.0342 64.7167C39.0342 79.2067 50.7807 90.9532 65.2707 90.9532C79.7607 90.9532 91.5072 79.2067 91.5072 64.7167ZM129.987 64.7167C129.987 100.459 101.013 129.433 65.2707 129.433C29.5287 129.433 0.554016 100.459 0.554016 64.7167C0.554016 28.9747 29.5287 0 65.2707 0C101.013 0 129.987 28.9747 129.987 64.7167Z" fill="#00AEEF"/>
<path d="M144.775 1.43106C112.655 3.52998 81.5426 86.9266 74.0957 128.825C110.795 128.825 136.162 104.363 140.164 91.6687C170.821 90.2694 186.33 62.9941 190.252 49.5313C183.001 53.4111 163.326 51.1479 154.395 49.5313C190.84 40.6268 206.948 13.7543 210.446 1.43106C187.151 5.16777 184.925 -1.19259 144.775 1.43106Z" fill="#008CCF"/>
</svg>
